<?xml version="1.0" encoding="UTF-8"?>
<!DOCTYPE svg PUBLIC "-//W3C//DTD SVG 1.1//EN" "http://www.w3.org/Graphics/SVG/1.1/DTD/svg11.dtd">
<!-- Creator: CorelDRAW 2020 (64-Bit) -->
<svg xmlns="http://www.w3.org/2000/svg" xml:space="preserve" width="32.2149mm" height="31.9584mm" version="1.1" style="shape-rendering:geometricPrecision; text-rendering:geometricPrecision; image-rendering:optimizeQuality; fill-rule:evenodd; clip-rule:evenodd"
viewBox="0 0 240.43 238.51"
 xmlns:xlink="http://www.w3.org/1999/xlink"
 xmlns:xodm="http://www.corel.com/coreldraw/odm/2003">
 <defs>
  <style type="text/css">
   <![CDATA[
    .str0 {stroke:#FFC000;stroke-width:1.49;stroke-miterlimit:22.9256}
    .fil3 {fill:#ED462B}
    .fil2 {fill:#F1C907}
    .fil1 {fill:#FFAA29}
    .fil5 {fill:#FFC000}
    .fil4 {fill:#FFC2B4}
    .fil0 {fill:#FFD821}
   ]]>
  </style>
 </defs>
 <g id="图层_x0020_1">
  <metadata id="CorelCorpID_0Corel-Layer"/>
  <g id="_1589272576848">
   <path class="fil0" d="M113.91 52.95c-6.1,20.47 -14.15,41.39 -28.44,55.51 -14.76,14.6 -42.09,14.17 -54.42,-3.9l-2.62 -4.2c-5.35,2.08 -3.54,1.44 -9.57,4.21 4.55,17.26 7.49,39.11 10.76,57.2 1.72,9.53 3.49,19.05 5.09,28.59 3.59,21.42 3.61,14.62 10.7,24.37 17.42,-2.7 138.02,-3.45 152.66,0.33 4.32,-5.88 -2.3,-2.57 7.07,-7.05 -11.15,3.24 -70.9,2.68 -83.64,0.53l0 -34.68c-14.35,-2.76 -20.93,-9.54 -24.05,-26.7l0.16 1.7c-1.56,-10.87 6.28,-30.83 23.89,-32.76l0 -80.06c-1.66,-7.12 1.06,1.34 -4.43,-0.32l-3.16 17.24z"/>
   <path class="fil1" d="M97.78 150.32l24.81 -30.94 -1.64 27.27 1.64 -27.27c32.65,4.58 32.08,51.41 -1.09,54.48l0 34.68c12.75,2.15 72.49,2.7 83.64,-0.53l20.04 -102.86c-7.84,-5.17 -2.34,-1.17 -11.69,-8.03 -1.2,3.56 -1.57,4.64 -2.2,6.73 -6.3,19.38 -39.18,18.24 -54.34,3.92 -12.26,-11.58 -23.24,-37.4 -27,-55.48l-4.36 -16.32 -4.08 0.53 0 79.6c-17.61,1.93 -26.11,16.7 -23.72,34.23z"/>
   <path class="fil2" d="M45.41 214.73c-7.41,1.57 -9.48,9.38 -5.32,16.9 4.72,8.52 15.28,6.4 23.73,6.32 16.41,-0.17 129.45,2.5 136.37,-2.46 7,-5.02 8,-17 -2.12,-20.42 -14.65,-3.77 -135.24,-3.02 -152.66,-0.33z"/>
   <path class="fil3" d="M31.05 104.56c12.33,18.07 39.66,18.5 54.42,3.9 14.28,-14.13 22.34,-35.04 28.44,-55.51 -32.33,2.38 -68.95,18.98 -82.85,51.62z"/>
   <path class="fil3" d="M211.28 103.84c-13.15,-32.62 -50.24,-45.6 -81.34,-51.56 3.77,18.07 14.74,43.9 27,55.48 15.16,14.32 48.04,15.46 54.34,-3.92z"/>
   <path class="fil3" d="M120.96 146.65l-23.54 0.21c1.34,17.41 9.06,24 24.08,27 34.74,-2.95 32.65,-53.19 0,-57.77l-0.54 30.56z"/>
   <polygon class="fil4" points="97.42,146.86 97.42,146.86 120.96,146.65 121.5,116.09 "/>
   <circle class="fil5 str0" cx="121.94" cy="18.89" r="18.14"/>
   <circle class="fil5 str0" cx="16.05" cy="91.43" r="15.3"/>
   <circle class="fil5 str0" cx="224.38" cy="89.95" r="15.3"/>
  </g>
 </g>
</svg>
